<?xml version="1.0" encoding="UTF-8"?>
<svg width="280" height="207" viewBox="0 0 280 207" fill="none" xmlns="http://www.w3.org/2000/svg">
    <path d="M141 0C74.1735 0 20 54.1735 20 121C20 132.44 21.5877 143.51 24.5547 154H257.445C260.412 143.51 262 132.44 262 121C262 54.1735 207.826 0 141 0Z" fill="#F5F5F5"/>
    <path fill-rule="evenodd" clip-rule="evenodd" d="M94.5 22.0001C95.0861 22.0001 95.6056 22.3626 95.7867 22.8979L96.698 25.5912H99.647C100.233 25.5912 100.753 25.9536 100.934 26.4889C101.115 27.0243 100.916 27.6107 100.442 27.9415L98.0565 29.6061L98.9677 32.2994C99.1489 32.8347 98.9504 33.4211 98.4762 33.752C98.002 34.0828 97.3599 34.0828 96.8857 33.752L94.5 32.0874L92.1143 33.752C91.6401 34.0828 90.998 34.0828 90.5238 33.752C90.0496 33.4211 89.8511 32.8347 90.0323 32.2994L90.9435 29.6061L88.5578 27.9415C88.0836 27.6107 87.8852 27.0243 88.0663 26.4889C88.2474 25.9536 88.7669 25.5912 89.353 25.5912H92.302L93.2133 22.8979C93.3944 22.3626 93.9139 22.0001 94.5 22.0001ZM93.285 26.8904H89.353L92.534 29.1098L91.319 32.7009L94.5 30.4815L97.681 32.7009L96.466 29.1098L99.647 26.8904H95.715L94.5 23.2994L93.285 26.8904Z" fill="#BDBDBD"/>
    <path fill-rule="evenodd" clip-rule="evenodd" d="M54.0947 134.465C55.5081 134.465 56.6538 133.319 56.6538 131.905C56.6538 130.492 55.5081 129.346 54.0947 129.346C52.6813 129.346 51.5355 130.492 51.5355 131.905C51.5355 133.319 52.6813 134.465 54.0947 134.465ZM54.0947 136C56.3561 136 58.1893 134.167 58.1893 131.905C58.1893 129.644 56.3561 127.811 54.0947 127.811C51.8332 127.811 50 129.644 50 131.905C50 134.167 51.8332 136 54.0947 136Z" fill="#E0E0E0"/>
    <path d="M237.626 79.7678C237.626 79.3437 237.282 79 236.858 79C236.434 79 236.09 79.3437 236.09 79.7678V84.3743H231.484C231.06 84.3743 230.716 84.718 230.716 85.142C230.716 85.566 231.06 85.9098 231.484 85.9098H236.09V90.5163C236.09 90.9403 236.434 91.284 236.858 91.284C237.282 91.284 237.626 90.9403 237.626 90.5163V85.9098H242.232C242.656 85.9098 243 85.566 243 85.142C243 84.718 242.656 84.3743 242.232 84.3743H237.626V79.7678Z" fill="#BDBDBD"/>
    <path fill-rule="evenodd" clip-rule="evenodd" d="M204 38.5C205.381 38.5 206.5 37.3807 206.5 36C206.5 34.6193 205.381 33.5 204 33.5C202.619 33.5 201.5 34.6193 201.5 36C201.5 37.3807 202.619 38.5 204 38.5ZM204 40C206.209 40 208 38.2091 208 36C208 33.7909 206.209 32 204 32C201.791 32 200 33.7909 200 36C200 38.2091 201.791 40 204 40Z" fill="#E0E0E0"/>
    <path fill-rule="evenodd" clip-rule="evenodd" d="M19 156.5C19 155.119 20.1193 154 21.5 154H260.5C261.881 154 263 155.119 263 156.5C263 157.881 261.881 159 260.5 159H21.5C20.1193 159 19 157.881 19 156.5Z" fill="#424242"/>
    <path fill-rule="evenodd" clip-rule="evenodd" d="M0 156.5C0 155.119 1.11929 154 2.5 154H12.5C13.8807 154 15 155.119 15 156.5C15 157.881 13.8807 159 12.5 159H2.5C1.11929 159 0 157.881 0 156.5Z" fill="#424242"/>
    <path fill-rule="evenodd" clip-rule="evenodd" d="M268 156.5C268 155.119 269.119 154 270.5 154L277.5 154C278.881 154 280 155.119 280 156.5C280 157.881 278.881 159 277.5 159L270.5 159C269.119 159 268 157.881 268 156.5Z" fill="#424242"/>
    <path d="M137.381 137.929L126.454 157.681C125.794 158.874 124.368 159.413 123.083 158.955L83.9302 145V180.56L137.381 200.225V137.929Z" fill="white"/>
    <path d="M198.07 145.505L156.048 158.984C154.798 159.385 153.438 158.858 152.784 157.72L142.949 140.599V200.423L198.07 180.007V145.505Z" fill="white"/>
    <path d="M156.49 152.995L142.939 129.406L195.623 112.906L209.959 135.845L156.49 152.995Z" fill="white"/>
    <path d="M71.9727 134.827L85.6388 112.863L136.14 128.68C136.112 128.724 136.084 128.77 136.059 128.817L122.727 152.917L71.9727 134.827Z" fill="white"/>
    <path d="M96.9092 110.559L140.7 124.273L184.49 110.559L140.7 96.8439L96.9092 110.559Z" fill="#BDBDBD"/>
    <path fill-rule="evenodd" clip-rule="evenodd" d="M81.1245 109.676C81.0772 109.691 81.0361 109.721 81.01 109.763L65.4202 134.818C64.9753 135.534 64.878 136.412 65.1556 137.207C65.4332 138.002 66.0559 138.629 66.8492 138.911L78.3626 143.015V182.502C78.3626 183.669 79.0902 184.712 80.1853 185.114L139.204 206.829C139.604 206.976 140.027 207.027 140.44 206.986C140.85 207.028 141.276 206.98 141.689 206.827L201.821 184.556C202.913 184.151 203.638 183.11 203.638 181.945V143.72L215.066 140.054C215.884 139.791 216.535 139.166 216.83 138.36C217.126 137.553 217.032 136.656 216.577 135.927C216.577 135.927 200.862 110.783 200.58 110.333C200.299 109.882 199.866 109.548 199.36 109.388L193.352 107.5L141.032 91.1138C140.816 91.0459 140.583 91.0459 140.367 91.1138L81.1245 109.676ZM71.9726 134.827L85.6387 112.863L136.14 128.68C136.112 128.724 136.084 128.77 136.059 128.817L122.727 152.917L71.9726 134.827ZM156.491 152.995L142.94 129.406L195.623 112.906L209.959 135.845L156.491 152.995ZM198.07 145.505L156.048 158.984C154.798 159.385 153.438 158.858 152.784 157.72L142.949 140.599V200.423L198.07 180.007V145.505ZM96.909 110.559L140.699 124.273L184.49 110.559L140.699 96.844L96.909 110.559ZM137.381 137.929L126.454 157.681C125.794 158.874 124.368 159.413 123.084 158.956L83.9304 145V180.56L137.381 200.225V137.929Z" fill="#424242"/>
    <circle cx="157.652" cy="170.121" r="3.34066" transform="rotate(-15.8176 157.652 170.121)" fill="#424242"/>
    <circle cx="186.453" cy="163.242" r="3.34066" transform="rotate(-15.8176 186.453 163.242)" fill="#424242"/>
    <path fill-rule="evenodd" clip-rule="evenodd" d="M168.757 182.785C168.534 183.852 167.493 184.546 166.419 184.338C165.334 184.128 164.626 183.078 164.836 181.994L166.769 182.369C164.836 181.994 164.836 181.992 164.836 181.991L164.837 181.989L164.838 181.983L164.841 181.971L164.847 181.941C164.852 181.919 164.858 181.892 164.865 181.862C164.879 181.8 164.899 181.723 164.926 181.63C164.979 181.445 165.059 181.2 165.175 180.909C165.408 180.326 165.791 179.557 166.404 178.72C167.647 177.025 169.778 175.134 173.336 173.924C176.895 172.715 179.737 172.916 181.755 173.503C182.752 173.793 183.524 174.17 184.063 174.49C184.333 174.649 184.546 174.795 184.701 174.91C184.778 174.967 184.841 175.016 184.89 175.056C184.915 175.076 184.935 175.093 184.953 175.108L184.976 175.128L184.985 175.136L184.99 175.14L184.992 175.142C184.993 175.142 184.994 175.143 183.689 176.618L184.994 175.143C185.821 175.875 185.899 177.139 185.167 177.966C184.442 178.786 183.194 178.87 182.366 178.159C182.361 178.155 182.346 178.143 182.323 178.126C182.269 178.086 182.17 178.017 182.025 177.931C181.737 177.761 181.273 177.529 180.638 177.344C179.393 176.982 177.391 176.771 174.624 177.711C171.856 178.652 170.397 180.039 169.631 181.085C169.24 181.618 169.013 182.085 168.888 182.396C168.826 182.552 168.79 182.667 168.771 182.732C168.763 182.759 168.759 182.777 168.757 182.785Z" fill="#424242"/>
    <path fill-rule="evenodd" clip-rule="evenodd" d="M108.547 81.5044C107.614 82.3048 106.208 82.1967 105.407 81.2628L97.0311 71.4908C96.2306 70.557 96.3388 69.151 97.2727 68.3505C98.2065 67.55 99.6125 67.6582 100.413 68.5921L108.789 78.364C109.589 79.2979 109.481 80.7039 108.547 81.5044Z" fill="#424242"/>
    <path fill-rule="evenodd" clip-rule="evenodd" d="M138.007 76.9927C136.777 76.9927 135.78 75.9956 135.78 74.7656L135.78 56.6703C135.78 55.4403 136.777 54.4432 138.007 54.4432C139.237 54.4432 140.234 55.4403 140.234 56.6703L140.234 74.7656C140.234 75.9956 139.237 76.9927 138.007 76.9927Z" fill="#424242"/>
    <path fill-rule="evenodd" clip-rule="evenodd" d="M168.239 81.6341C167.139 81.084 166.693 79.7462 167.243 78.6461L172.768 67.5971C173.318 66.4969 174.655 66.051 175.756 66.6011C176.856 67.1512 177.302 68.4889 176.752 69.5891L171.227 80.6381C170.677 81.7382 169.339 82.1841 168.239 81.6341Z" fill="#424242"/>
</svg>