<svg width="84" height="83" viewBox="0 0 84 83" fill="none"
    xmlns="http://www.w3.org/2000/svg">
    <path
        d="M16.0625 74.6998C9.75452 74.6998 4.65002 69.5953 4.65002 63.2873V19.7123C4.65002 13.4043 9.75452 8.2998 16.0625 8.2998H67.9375C74.2455 8.2998 79.35 13.4043 79.35 19.7123V63.2873C79.35 69.5953 74.2455 74.6998 67.9375 74.6998H16.0625ZM10.875 53.7008L20.088 46.4798C20.7935 45.9403 21.5405 45.6498 22.329 45.6498C23.1175 45.6498 23.906 45.9403 24.57 46.4798L35.4015 55.2363L53.4955 40.2548C54.201 39.6738 54.948 39.4248 55.7365 39.4248C56.525 39.4248 57.3135 39.7153 57.9775 40.2548L73.125 52.3728V19.7123C73.125 16.8488 70.801 14.5248 67.9375 14.5248H16.0625C13.199 14.5248 10.875 16.8488 10.875 19.7123V53.7008ZM33.7 41.4998C27.973 41.4998 23.325 36.8518 23.325 31.1248C23.325 25.3978 27.973 20.7498 33.7 20.7498C39.427 20.7498 44.075 25.3978 44.075 31.1248C44.075 36.8518 39.427 41.4998 33.7 41.4998ZM33.7 35.2748C35.9825 35.2748 37.85 33.4073 37.85 31.1248C37.85 28.8423 35.9825 26.9748 33.7 26.9748C31.4175 26.9748 29.55 28.8423 29.55 31.1248C29.55 33.4073 31.4175 35.2748 33.7 35.2748ZM16.0625 68.4748H67.9375C70.801 68.4748 73.125 66.1508 73.125 63.2873V61.8763C73.125 60.8803 72.71 60.0088 71.9215 59.3863L55.7365 46.4383L37.6425 61.4613C36.9785 62.0008 36.19 62.2498 35.4015 62.2498C34.613 62.2498 33.866 62.0423 33.1605 61.4613L22.329 52.6633L12.0785 60.7143C11.29 61.3368 10.875 62.2083 10.875 63.2043V63.2873C10.875 66.1508 13.199 68.4748 16.0625 68.4748Z"
        fill="#ABACAD" />
</svg>